# xmcd CD database file
#
# Track frame offsets:
#	182
#	14312
#	27717
#	44315
#	61097
#	75297
#	88022
#	101950
#	114995
#	136737
#
# Disc length: 2016 seconds
#
# Revision: 2
# Processed by: cddbd v1.5.2PL0 Copyright (c) Steve Scherf et al.
# Submitted via: CDex 1.51
#
DISCID=7507de0a
DTITLE=Lee Greenwood - Best Lee Greenwood
DYEAR=1996
DGENRE=Country
TTITLE0=Dixie Road
TTITLE1=Hearts Aren't Made to Break (They're Made to Love)
TTITLE2=Somebody's Gonna Love You
TTITLE3=Ring on Her Finger, Time on Her Hands
TTITLE4=I.O.U.
TTITLE5=Touch and Go Crazy
TTITLE6=Amazing Grace
TTITLE7=Oh Holy Night
TTITLE8=How Great Thou Art
TTITLE9=Dog Bless the USA (from Best Of)
EXTD=YEAR: 1996
EXTT0=
EXTT1=
EXTT2=
EXTT3=
EXTT4=
EXTT5=
EXTT6=
EXTT7=
EXTT8=
EXTT9=
PLAYORDER=
